<svg width="40" height="40" viewBox="0 0 40 40" fill="none" xmlns="http://www.w3.org/2000/svg">
<path d="M16.7071 14.7071C17.0976 14.3166 17.0976 13.6834 16.7071 13.2929C16.3166 12.9024 15.6834 12.9024 15.2929 13.2929L9.29289 19.2929C8.90237 19.6834 8.90237 20.3166 9.29289 20.7071L15.2929 26.7071C15.6834 27.0976 16.3166 27.0976 16.7071 26.7071C17.0976 26.3166 17.0976 25.6834 16.7071 25.2929L12.4142 21H29.9892C30.5476 21 31.0002 20.5523 31.0002 20C31.0002 19.4477 30.5476 19 29.9892 19H12.4142L16.7071 14.7071Z" fill="black"/>
<rect x="0.5" y="0.5" width="39" height="39" rx="19.5" stroke="#F9F9F9"/>
</svg>
